<?xml version="1.0" encoding="UTF-8" standalone="no"?>
<svg
   viewBox="0 0 512 512"
   version="1.1"
   id="svg4"
   sodipodi:docname="screwdriver-wrench-solid.svg"
   inkscape:version="1.1 (c68e22c387, 2021-05-23)"
   xmlns:inkscape="http://www.inkscape.org/namespaces/inkscape"
   xmlns:sodipodi="http://sodipodi.sourceforge.net/DTD/sodipodi-0.dtd"
   xmlns="http://www.w3.org/2000/svg"
   xmlns:svg="http://www.w3.org/2000/svg">
  <defs
     id="defs8" />
  <sodipodi:namedview
     id="namedview6"
     pagecolor="#ffffff"
     bordercolor="#666666"
     borderopacity="1.0"
     inkscape:pageshadow="2"
     inkscape:pageopacity="0.0"
     inkscape:pagecheckerboard="0"
     showgrid="false"
     inkscape:zoom="0.73535156"
     inkscape:cx="563.67596"
     inkscape:cy="313.45551"
     inkscape:window-width="2560"
     inkscape:window-height="1009"
     inkscape:window-x="1912"
     inkscape:window-y="-8"
     inkscape:window-maximized="1"
     inkscape:current-layer="svg4" />
  <rect
     style="fill:#000000;stroke-width:0.835899"
     id="rect859"
     width="48"
     height="48"
     x="616.03192"
     y="206.70386" />
  <path
     d="m 645.95141,228.21173 c 2.20996,0 4.28712,0.85859 5.8479,2.41952 l 1.53033,1.53047 c 3.12552,-1.38593 5.56591,-4.16405 6.376,-7.55076 0.44721,-1.86874 0.41715,-3.67811 0.0168,-5.34373 -0.20411,-0.85 -1.28346,-1.13359 -1.90138,-0.51594 l -5.38233,5.3828 h -5.90572 v -5.83639 l 5.38234,-5.3828 c 0.61806,-0.61812 0.33395,-1.69765 -0.5159,-1.90156 -1.66548,-0.40039 -3.47469,-0.43046 -5.34327,0.0168 -4.31992,1.0336 -7.68602,4.70468 -8.37424,9.09373 -0.11255,0.6504 -0.13598,1.28321 -0.12817,1.90821 l 6.4666,6.47342 c 0.63431,-0.21562 1.28269,-0.29375 1.93107,-0.29375 z m 4.07775,4.2578 c -1.80921,-1.80937 -4.49724,-2.1539 -6.67048,-1.08593 l -8.39846,-8.33592 v -4.84451 l -9.92878,-7.4992 -4.99955,4.92967 7.49932,9.92966 4.84644,6.7e-4 8.33517,8.3281 c -1.06787,2.17343 -0.72266,4.8617 1.08663,6.67107 l 9.13979,9.14841 c 1.14209,1.13281 2.98488,1.13281 4.1176,-1.3e-4 l 4.12072,-4.12108 c 1.13272,-1.13281 1.13272,-2.975 0,-4.11796 z m -12.1942,2.21875 -4.62458,-4.61718 -11.63176,11.63278 c -2.05996,2.06015 -2.05996,5.39686 0,7.45701 1.02803,1.02734 2.37557,1.54296 3.72623,1.54296 1.35065,0 2.69819,-0.515 3.72779,-1.54531 l 9.30384,-9.30465 c -0.689,-1.62656 -0.91554,-3.41562 -0.50152,-5.16561 z m -12.80352,12.89058 c -1.03507,0 -1.87484,-0.83984 -1.87484,-1.87499 0,-1.03594 0.83977,-1.875 1.87484,-1.875 1.03505,0 1.87482,0.83594 1.87482,1.875 0,1.03906 -0.83977,1.87499 -1.87482,1.87499 z"
     id="path2-2"
     style="fill:#ffffff;stroke-width:0.0781212" />
  <!--! Font Awesome Pro 6.0.0 by @fontawesome - https://fontawesome.com License - https://fontawesome.com/license (Commercial License) Copyright 2022 Fonticons, Inc. -->
  <path
     d="M331.8 224.1c28.29 0 54.88 10.99 74.86 30.97l19.59 19.59c40.01-17.74 71.25-53.3 81.62-96.65c5.725-23.92 5.34-47.08 .2148-68.4c-2.613-10.88-16.43-14.51-24.34-6.604l-68.9 68.9h-75.6V97.2l68.9-68.9c7.912-7.912 4.275-21.73-6.604-24.34c-21.32-5.125-44.48-5.51-68.4 .2148c-55.3 13.23-98.39 60.22-107.2 116.4C224.5 128.9 224.2 137 224.3 145l82.78 82.86C315.2 225.1 323.5 224.1 331.8 224.1zM384 278.6c-23.16-23.16-57.57-27.57-85.39-13.9L191.1 158L191.1 95.99l-127.1-95.99L0 63.1l96 127.1l62.04 .0077l106.7 106.6c-13.67 27.82-9.251 62.23 13.91 85.39l117 117.1c14.62 14.5 38.21 14.5 52.71-.0016l52.75-52.75c14.5-14.5 14.5-38.08-.0016-52.71L384 278.6zM227.9 307L168.7 247.9l-148.9 148.9c-26.37 26.37-26.37 69.08 0 95.45C32.96 505.4 50.21 512 67.5 512s34.54-6.592 47.72-19.78l119.1-119.1C225.5 352.3 222.6 329.4 227.9 307zM64 472c-13.25 0-24-10.75-24-24c0-13.26 10.75-24 24-24S88 434.7 88 448C88 461.3 77.25 472 64 472z"
     id="path2" />
</svg>
